<?xml version="1.0" encoding="utf-8"?>
<!-- Generator: Adobe Illustrator 28.0.0, SVG Export Plug-In . SVG Version: 6.00 Build 0)  -->
<svg version="1.1" xmlns="http://www.w3.org/2000/svg" xmlns:xlink="http://www.w3.org/1999/xlink" x="0px" y="0px"
	 viewBox="0 0 116.4 45.3" style="enable-background:new 0 0 116.4 45.3;" xml:space="preserve">
<style type="text/css">
	.st0{fill:#FFFFFF;}
	.st1{display:none;}
</style>
<g id="Layer_1">
	<polygon class="st0" points="57.8,26.3 62.6,26.3 55.1,33.8 60.5,33.8 65.3,29 65.3,33.8 69.1,33.8 69.1,22.5 57.8,22.5 	"/>
	<path class="st0" d="M51.2,30.8c-2.1-2.1-3.3-5-3.3-8s1.2-5.8,3.3-8c4.4-4.4,11.6-4.4,16,0l-3.1,3.1c-2.7-2.7-7.1-2.7-9.8,0
		c-1.3,1.3-2,3.1-2.1,4.9c0,1.9,0.7,3.6,2,4.9C54.3,27.7,51.2,30.8,51.2,30.8z M41.9,28.7H33l-1.9,5.2h-4.7l8.2-22h5.7l8.2,22h-4.8
		L41.9,28.7L41.9,28.7z M40.3,24.4l-2.9-8l-2.9,8H40.3L40.3,24.4z M89,27.5c0,4-2.9,6.3-7.4,6.3h-9.7v-22h9.6c4.1,0,6.7,1.9,6.7,5.7
		c0,2.2-0.9,3.5-2.7,4.4C87.9,22.8,89,24.9,89,27.5L89,27.5z M80.9,16.1h-4.6v4.4H81c1.9,0,2.7-0.8,2.7-2.2
		C83.7,16.7,82.8,16.1,80.9,16.1z M84.4,27c0-1.4-0.7-2.5-3-2.5h-5.1v5.1h5.1C83.8,29.6,84.4,28.5,84.4,27L84.4,27z M22.5,27.7
		l3.1,3.1c-4.4,4.4-11.6,4.4-16,0v0c-0.1-0.1-0.3-0.3-0.4-0.4c0,0,0,0,0,0c-0.2-0.3-0.5-0.6-0.7-0.9c-1.4-1.9-2.2-4.3-2.2-6.7
		c0-1.7,0.4-3.3,1.1-4.8c0.1-0.3,0.3-0.6,0.4-0.8C8,16.7,8.2,16.4,8.5,16c0.2-0.3,0.5-0.6,0.7-0.9c0.1-0.1,0.3-0.3,0.4-0.4l0,0
		c4.4-4.4,11.6-4.4,16,0l-3.1,3.1c-2.7-2.7-7.1-2.7-9.9,0c-0.2,0.2-0.3,0.3-0.5,0.5c0,0,0,0,0,0c-0.1,0.2-0.3,0.4-0.4,0.6
		c-0.1,0.2-0.2,0.4-0.4,0.6c-0.2,0.3-0.3,0.6-0.4,0.9c0,0.1-0.1,0.2-0.1,0.3c-0.1,0.2-0.1,0.4-0.2,0.7c0,0.2-0.1,0.4-0.1,0.6
		c-0.1,0.5-0.1,1,0,1.5c0,0.2,0,0.4,0.1,0.5c0,0.2,0.1,0.3,0.1,0.4c0,0.2,0.1,0.4,0.2,0.6c0.1,0.3,0.3,0.6,0.4,0.9
		c0.1,0.2,0.2,0.3,0.3,0.5c0,0.1,0.1,0.2,0.2,0.2c0.1,0.2,0.2,0.3,0.3,0.4c0,0,0,0,0,0c0.2,0.2,0.3,0.4,0.5,0.5
		C15.3,30.4,19.8,30.4,22.5,27.7L22.5,27.7z M106.5,27.7l3.1,3.1c-4.4,4.4-11.6,4.4-16,0v0c-0.1-0.1-0.3-0.3-0.4-0.4v0
		c-0.2-0.3-0.5-0.6-0.7-0.9c-1.4-1.9-2.2-4.3-2.2-6.7c0-1.7,0.4-3.3,1.1-4.8c0.1-0.3,0.3-0.6,0.4-0.8c0.2-0.4,0.4-0.7,0.7-1.1
		c0.2-0.3,0.5-0.6,0.7-0.9c0.1-0.1,0.3-0.3,0.4-0.4v0c4.4-4.4,11.6-4.4,16,0l-3.1,3.1c-2.7-2.7-7.1-2.7-9.9,0
		c-0.2,0.2-0.3,0.3-0.5,0.5v0c-0.1,0.2-0.3,0.4-0.4,0.6c-0.1,0.2-0.2,0.4-0.4,0.6c-0.2,0.3-0.3,0.6-0.4,0.9c0,0.1-0.1,0.2-0.1,0.3
		c-0.1,0.2-0.1,0.4-0.2,0.7c0,0.2-0.1,0.4-0.1,0.6c-0.1,0.5-0.1,1,0,1.5c0,0.2,0,0.4,0.1,0.5c0,0.2,0.1,0.3,0.1,0.4
		c0,0.2,0.1,0.4,0.2,0.6c0.1,0.3,0.3,0.6,0.4,0.9c0.1,0.2,0.2,0.3,0.3,0.5c0,0.1,0.1,0.2,0.2,0.2c0.1,0.2,0.2,0.3,0.3,0.4v0
		c0.2,0.2,0.3,0.4,0.5,0.5C99.4,30.4,103.8,30.4,106.5,27.7L106.5,27.7z"/>
</g>
<g id="Layer_2" class="st1">
</g>
</svg>
