<svg version="1.1" id="RGB" xmlns="http://www.w3.org/2000/svg" x="0" y="0" viewBox="0 0 1349.9 158.6" xml:space="preserve"><style>.st0{fill:#3f3e40}</style><path class="st0" d="M722.3 2.4h4V146h-4zM336.5 72.2V97H368l-49 49h35.1l31.4-31.4V146h24.8V72.2z"/><path class="st0" d="M293.7 125.9c-13.9-13.9-21.6-32.5-21.6-52.2s7.7-38.2 21.6-52.1c28.8-28.8 75.6-28.7 104.3 0l-20 20c-17.6-17.8-46.5-17.8-64.3-.1-8.6 8.6-13.3 20-13.4 32.2 0 12.2 4.7 23.6 13.3 32.2l-19.9 20zM232.6 112.2h-58.1l-12.3 33.9h-31L185 2.5h37.1l53.8 143.6h-31.2l-12.1-33.9zm-10.3-27.9-18.9-52.1-18.9 52.1h37.8zM540.3 104.6c0 26.3-18.9 41.4-48.4 41.4h-63.4V2.4h63c26.5 0 43.9 12.7 43.9 37.3 0 14.4-6.2 23-17.8 28.9 15.3 5.2 22.7 19.2 22.7 36zm-52.7-74.3h-29.8v28.9h30.6c12.1 0 17.4-4.9 17.4-14.6.1-10.4-5.9-14.3-18.2-14.3zm23 70.9c0-9.4-4.3-16.6-19.5-16.6h-33.2v33.5h33.4c15 .1 19.3-6.7 19.3-16.9zM106 105.9l20 20c-28.8 28.7-75.6 28.8-104.3 0v-.1c-.9-.8-1.7-1.7-2.5-2.6 0-.1 0-.1-.1-.1-1.6-1.8-3.1-3.7-4.6-5.6C5.1 104.9 0 89.6 0 73.6 0 62.5 2.5 51.8 7 42c.9-1.8 1.9-3.7 2.9-5.4 1.4-2.4 2.9-4.7 4.5-6.9 1.4-1.9 3-3.8 4.6-5.6.8-.9 1.7-1.8 2.5-2.7l.1-.1C50.5-7.2 97.2-7.2 126 21.6l-20 20c-17.8-17.8-46.6-17.8-64.4 0-1.1 1.1-2.1 2.2-3.1 3.3-.1 0-.1 0-.1.1-.9 1.2-1.8 2.3-2.6 3.6-.8 1.2-1.6 2.5-2.3 3.8-1.1 1.9-1.9 4-2.7 6.1-.3.7-.5 1.4-.7 2.1-.5 1.4-.8 2.9-1.1 4.3-.3 1.4-.5 2.8-.6 4.2a38.663 38.663 0 0 0 0 9.6c.1 1.2.3 2.4.5 3.5.2 1 .4 1.9.7 2.9.3 1.4.7 2.8 1.2 4.2.7 2.1 1.7 4.2 2.7 6.1.6 1 1.2 2.1 1.8 3.1.3.5.7 1 1 1.5.7 1 1.4 1.9 2.1 2.8.1 0 .1 0 .1.1 1 1.2 2 2.3 3.1 3.3 17.8 17.5 46.7 17.5 64.4-.3zM654.7 105.9l20 20c-28.8 28.7-75.5 28.8-104.3 0v-.1c-.9-.8-1.7-1.7-2.5-2.6v-.1c-1.6-1.8-3.1-3.7-4.6-5.6-9.4-12.6-14.5-27.9-14.5-43.9 0-11.1 2.5-21.8 7-31.6.9-1.8 1.9-3.7 2.9-5.4 1.4-2.4 2.9-4.7 4.5-6.9 1.4-1.9 3-3.8 4.6-5.6.8-.9 1.7-1.8 2.5-2.7v-.1c28.9-28.5 75.6-28.5 104.4.3l-20 20c-17.8-17.8-46.6-17.8-64.4 0-1.1 1.1-2.1 2.2-3 3.3v.1c-.9 1.2-1.8 2.3-2.6 3.6-.8 1.2-1.6 2.5-2.3 3.8-1.1 1.9-1.9 4-2.7 6.1-.3.7-.5 1.4-.7 2.1-.5 1.4-.8 2.9-1.1 4.3-.3 1.4-.5 2.8-.6 4.2a38.663 38.663 0 0 0 0 9.6c.1 1.2.3 2.4.5 3.5.2 1 .4 1.9.7 2.9.3 1.4.7 2.8 1.2 4.2.7 2.1 1.7 4.2 2.7 6.1.5 1 1.2 2.1 1.8 3.1.3.5.7 1 1 1.5.7 1 1.4 1.9 2.1 2.8v.1c1 1.2 2 2.3 3 3.3 17.8 17.5 46.6 17.5 64.4-.3z"/><g><path class="st0" d="m815 42.4 10.1 1.3c-3.7 11.1-13.4 18-25.2 18-15.2 0-26.9-11.5-26.9-28.6 0-17.2 11.6-28.6 26.9-28.6 11.9 0 21.7 7 25.3 18.3l-10.1 1.3c-2.6-6.3-8-10.1-15.2-10.1-10.1 0-16.8 7.4-16.8 19.2 0 12.1 6.7 19.2 16.8 19.2 7-.2 12.5-3.6 15.1-10zM866.4 60.9h-9.1c-.2-1.5-.2-3.9-.2-5.3h-.2c-3.7 4.6-8.4 6-13 6-8.2 0-14.2-4.9-14.2-12.8 0-6.1 3.9-11.9 14.9-12.4 5-.2 12.1-.3 12.1-.3V34c0-5-4.2-7.4-8.5-7.4s-7.7 2.4-8.2 6.2h-9.6c.5-8.7 7.7-13.8 17.9-13.8 10.3 0 17.7 6.4 17.7 16.1v12.4c0 7.5.1 10.9.4 13.4zm-19.1-17.6c-5.8.3-8 2.5-8 5.5 0 3.5 2.8 5.3 6.7 5.3 5.8 0 10.7-3.6 10.7-9.6V43c0-.1-5.1 0-9.4.3zM884.7 19.9v5h.2c1.9-3 6-5.8 11.5-5.8 7.4 0 14.1 4.9 14.1 16.6v25.1h-9.3V36.9c0-6.2-2.7-9.3-7-9.3-5.5 0-9.4 4.2-9.4 10.1v23.2h-9.4v-41h9.3zM954.4 60.9h-9.1c-.2-1.5-.2-3.9-.2-5.3h-.2c-3.7 4.6-8.4 6-13 6-8.2 0-14.2-4.9-14.2-12.8 0-6.1 3.9-11.9 14.9-12.4 5-.2 12.1-.3 12.1-.3V34c0-5-4.2-7.4-8.5-7.4s-7.7 2.4-8.2 6.2h-9.6c.5-8.7 7.7-13.8 17.9-13.8 10.3 0 17.7 6.4 17.7 16.1v12.4c0 7.5 0 10.9.4 13.4zm-19.2-17.6c-5.8.3-8 2.5-8 5.5 0 3.5 2.8 5.3 6.7 5.3 5.8 0 10.7-3.6 10.7-9.6V43c.1-.1-5.1 0-9.4.3zM1002.2 60.9h-9.3v-4.6h-.2c-2.6 2.6-6.7 5.4-12.8 5.4-10.7 0-19-8.5-19-21.3s8.4-21.3 19-21.3c6.2 0 10.2 2.8 12.8 5.4h.2V3.7h9.3v57.2zm-31.8-20.5c0 7.5 5 12.6 11.3 12.6S993 47.9 993 40.4s-5-12.6-11.3-12.6-11.3 5.1-11.3 12.6zM1046.6 60.9h-9.1c-.2-1.5-.2-3.9-.2-5.3h-.2c-3.7 4.6-8.4 6-13 6-8.2 0-14.2-4.9-14.2-12.8 0-6.1 3.9-11.9 14.9-12.4 5-.2 12.1-.3 12.1-.3V34c0-5-4.2-7.4-8.5-7.4s-7.7 2.4-8.2 6.2h-9.6c.5-8.7 7.7-13.8 17.9-13.8 10.3 0 17.7 6.4 17.7 16.1v12.4c0 7.5.1 10.9.4 13.4zm-19.1-17.6c-5.8.3-8 2.5-8 5.5 0 3.5 2.8 5.3 6.7 5.3 5.8 0 10.7-3.6 10.7-9.6V43c.1-.1-5.1 0-9.4.3zM1133 29v7.6c0 14.3-10.8 24.2-25.5 24.2-15.5 0-27.3-11.8-27.3-28.6 0-16.9 11.8-28.6 27.3-28.6 11.6 0 21.6 7 24.6 17.6l-10.1 1.3c-2.2-5.8-8-9.5-14.5-9.5-9.9 0-17.3 7.7-17.3 19.2s7.4 19.2 17.3 19.2c8.4 0 15-5.5 15.6-13.1h-20.4V29h30.3zM1150.7 19.1v4.6h.2c2.1-2.6 5.1-5 10.6-5 .7 0 2.1.2 3 .5v9.3c-1.2-.3-2.9-.5-3.9-.5-7 0-9.8 3-9.8 9.7v22.4h-9.3v-41h9.2zM1197.5 46.9l9.7 1.3c-3.9 9.4-10.6 12.6-18.9 12.6-11.8 0-20.6-8.5-20.6-21.3s8.7-21.3 19.9-21.3c10.8 0 20.5 7.7 20.5 24.3h-30.3c.7 6.6 5.3 10.1 10.6 10.1 4.4.1 7.6-2.1 9.1-5.7zm-19.8-11.4h20.1c-1-5.2-5.2-8.9-10.1-8.9-4.8 0-9 3.7-10 8.9zM1243 46.9l9.7 1.3c-3.9 9.4-10.6 12.6-18.9 12.6-11.8 0-20.6-8.5-20.6-21.3s8.7-21.3 19.9-21.3c10.8 0 20.5 7.7 20.5 24.3h-30.3c.7 6.6 5.3 10.1 10.6 10.1 4.3.1 7.5-2.1 9.1-5.7zm-19.9-11.4h20.1c-1-5.2-5.2-8.9-10.1-8.9-4.8 0-8.9 3.7-10 8.9zM1270.2 19.1v5h.2c1.9-3 6-5.8 11.5-5.8 7.4 0 14.1 4.9 14.1 16.6V60h-9.3V36c0-6.2-2.7-9.3-7-9.3-5.5 0-9.4 4.2-9.4 10.1V60h-9.3V19h9.2v.1zM812.4 101c0 7.7-6.2 11.6-7.4 12.1v.2c3.9 1.5 9.1 5.5 9.1 12.9 0 9.7-6.9 16.1-17.2 16.1h-21.6V86.6h21.5c9.3 0 15.6 5.8 15.6 14.4zM785 95.8v12.7h10.1c4.6 0 7.2-2.3 7.2-6.3s-2.6-6.3-7.2-6.3l-10.1-.1zm0 22V133h10.6c5.3 0 8.4-2.8 8.4-7.6s-3.1-7.6-8.4-7.6H785zM821.4 127.5v-26.2h9.3v24.1c0 6.2 2.6 9.3 6.9 9.3 5.5 0 9.2-4.2 9.2-10.1v-23.2h9.3v41h-9.3v-4.6h-.2c-2.3 2.6-5.8 5.4-12.3 5.4-7.4-.2-12.9-5.2-12.9-15.7zM864.7 90.8c0-3.4 2.7-6.2 6.2-6.2s6.2 2.8 6.2 6.2c0 3.5-2.7 6.2-6.2 6.2s-6.2-2.7-6.2-6.2zm10.8 10.5v41h-9.3v-41h9.3zM894.9 85v57.3h-9.3V85h9.3zM943.8 142.3h-9.3v-4.6h-.2c-2.6 2.6-6.7 5.4-12.8 5.4-10.7 0-19-8.5-19-21.3s8.4-21.3 19-21.3c6.2 0 10.2 2.8 12.8 5.4h.2V85h9.3v57.3zM912 121.8c0 7.5 5 12.6 11.3 12.6 6.3 0 11.3-5.1 11.3-12.6s-5-12.6-11.3-12.6c-6.3-.1-11.3 5.1-11.3 12.6zM952.4 90.8c0-3.4 2.7-6.2 6.2-6.2s6.2 2.8 6.2 6.2c0 3.5-2.7 6.2-6.2 6.2s-6.2-2.7-6.2-6.2zm10.8 10.5v41h-9.3v-41h9.3zM982.6 101.3v5h.2c1.9-3 6-5.8 11.5-5.8 7.4 0 14.1 4.9 14.1 16.6v25.1h-9.3v-24.1c0-6.2-2.7-9.3-7-9.3-5.5 0-9.4 4.2-9.4 10.1v23.2h-9.3v-41h9.2v.2zM1055.4 136.5c0 13.8-8.4 22.1-20.2 22.1-9.7 0-16.6-5.2-19.3-14.2l9.6-1.4c1.5 5.3 5.3 7.5 9.8 7.5 7.5 0 10.8-5.5 10.8-13.2v-1.8h-.2c-3.9 3.6-7.2 5.4-12.4 5.4-10.6 0-18.3-8-18.3-20.1s7.7-20.1 18.3-20.1c5.2 0 8.5 1.8 12.4 5.4h.2v-4.8h9.3v35.2zm-9.2-15.7c0-7-4.8-11.6-10.7-11.6-5.9 0-10.7 4.6-10.7 11.6s4.8 11.6 10.7 11.6 10.7-4.6 10.7-11.6zM1123.7 123.4l10.1 1.3c-3.7 11.1-13.4 18-25.2 18-15.2 0-26.9-11.5-26.9-28.6 0-17.2 11.6-28.6 26.9-28.6 11.9 0 21.7 7 25.3 18.3l-10.1 1.3c-2.6-6.3-8-10.1-15.2-10.1-10.1 0-16.8 7.4-16.8 19.2 0 12.1 6.7 19.2 16.8 19.2 7.1-.2 12.6-3.7 15.1-10zM1138.6 121.4c0-12 9.1-21.2 21-21.2 11.8 0 21 9.2 21 21.2s-9.1 21.2-21 21.2c-11.8 0-21-9.2-21-21.2zm32.4 0c0-7.4-4.9-12.5-11.4-12.5s-11.4 5.2-11.4 12.5 4.9 12.5 11.4 12.5c6.5.1 11.4-5.1 11.4-12.5zM1187.6 127.1v-26.3h9.3v24.1c0 6.2 2.6 9.3 6.9 9.3 5.5 0 9.2-4.2 9.2-10.1v-23.3h9.3v41h-9.3v-4.6h-.2c-2.3 2.6-5.8 5.4-12.3 5.4-7.4 0-12.9-5-12.9-15.5zM1241.3 100.8v5h.2c1.9-3 6-5.8 11.5-5.8 7.4 0 14.1 4.9 14.1 16.6v25.1h-9.3v-23.9c0-6.2-2.7-9.3-7-9.3-5.5 0-9.4 4.2-9.4 10.1v23.2h-9.3v-41h9.2zM1304.1 126.3l9.5 1.3c-2.3 9.1-9.4 15-19 15-12 0-20.7-8.5-20.7-21.3s8.7-21.3 20.7-21.3c9.5 0 16.6 5.9 19 15l-9.5 1.3c-1.5-5.3-5.3-7.8-9.7-7.8-6.4 0-10.8 5.1-10.8 12.8s4.3 12.8 10.8 12.8c4.4 0 8.2-2.5 9.7-7.8zM1319.6 90.4c0-3.4 2.7-6.2 6.2-6.2s6.2 2.8 6.2 6.2c0 3.5-2.7 6.2-6.2 6.2s-6.2-2.7-6.2-6.2zm10.8 10.4v41h-9.3v-41h9.3zM1349.9 84.6v57.3h-9.3V84.6h9.3z"/></g></svg>