<svg xmlns="http://www.w3.org/2000/svg" xmlns:xlink="http://www.w3.org/1999/xlink" xml:space="preserve" version="1.1" style="shape-rendering:geometricPrecision;text-rendering:geometricPrecision;image-rendering:optimizeQuality;" viewBox="0 0 847 1058.75" x="0px" y="0px" fill-rule="evenodd" clip-rule="evenodd"><defs><style type="text/css">
   
    .fil0 {fill:black}
   
  </style></defs><g><path class="fil0" d="M404 11l39 0c2,0 4,2 4,4l0 385 385 0c2,0 4,1 4,4l0 39c0,2 -2,4 -4,4l-385 0 0 385c0,2 -2,4 -4,4l-39 0c-3,0 -4,-2 -4,-4l0 -385 -385 0c-2,0 -4,-2 -4,-4l0 -39c0,-3 2,-4 4,-4l385 0 0 -385c0,-2 1,-4 4,-4z"/></g><text x="0" y="862" fill="#000000" font-size="5px" font-weight="bold" font-family="'Helvetica Neue', Helvetica, Arial-Unicode, Arial, Sans-serif">Created by Bismillah</text><text x="0" y="867" fill="#000000" font-size="5px" font-weight="bold" font-family="'Helvetica Neue', Helvetica, Arial-Unicode, Arial, Sans-serif">from the Noun Project</text></svg>