<?xml version="1.0" encoding="utf-8"?>
<!-- Generator: Adobe Illustrator 28.0.0, SVG Export Plug-In . SVG Version: 6.00 Build 0)  -->
<svg version="1.1" id="Layer_1" xmlns="http://www.w3.org/2000/svg" xmlns:xlink="http://www.w3.org/1999/xlink" x="0px" y="0px"
	 viewBox="0 0 252 144" style="enable-background:new 0 0 252 144;" xml:space="preserve">
<style type="text/css">
	.st0{fill:#B4AEA7;stroke:#B4AEA7;stroke-miterlimit:10;}
</style>
<g>
	<path class="st0" d="M163.6,84.4h-4.4V81h4c2.3,0,2.5,0.9,2.5,1.6C165.7,83.4,165,84.4,163.6,84.4L163.6,84.4z M163.2,80.2h-4.8
		v8.2h0.9v-3h4.4c1.8,0,3-1.4,3-2.6C166.5,81.5,165.9,80.2,163.2,80.2z"/>
	<polygon class="st0" points="176.8,83.7 170.7,83.7 170.7,80.2 169.8,80.2 169.8,88.3 170.7,88.3 170.7,84.6 176.8,84.6 
		176.8,88.3 177.6,88.3 177.6,80.2 176.8,80.2 	"/>
	<rect x="181.9" y="80.2" class="st0" width="0.9" height="8.2"/>
	<polygon class="st0" points="187.9,80.2 187,80.2 187,88.3 194,88.3 194,87.5 187.9,87.5 	"/>
	<polygon class="st0" points="197.6,80.2 196.8,80.2 196.8,88.3 203.7,88.3 203.7,87.5 197.6,87.5 	"/>
	<rect x="206.6" y="80.2" class="st0" width="0.9" height="8.2"/>
	<path class="st0" d="M216.9,84.4h-4.4V81h4c2.3,0,2.5,0.9,2.5,1.6C219,83.4,218.4,84.4,216.9,84.4L216.9,84.4z M216.5,80.2h-4.8
		v8.2h0.9v-3h4.4c1.8,0,3-1.4,3-2.6C219.9,81.5,219.3,80.2,216.5,80.2z"/>
	<path class="st0" d="M223.9,84.4l1.6-3.1l1.6,3.1H223.9L223.9,84.4z M229.9,88.3L229.9,88.3l-4.2-8.3h-0.6l-4.2,8.3h0.9l1.6-3.1h4
		l1.6,3.1C229,88.3,229.9,88.3,229.9,88.3z"/>
	<path class="st0" d="M159.8,98.1l1.6-3.1l1.6,3.1H159.8L159.8,98.1z M161,93.8l-4.2,8.3h0.9l1.6-3.1h4l1.5,3.1h0.9l-4.1-8.3
		C161.6,93.8,161,93.8,161,93.8z"/>
	<polygon class="st0" points="167.8,94.8 171.7,94.8 171.7,102.1 172.5,102.1 172.5,94.8 176.4,94.8 176.4,93.9 167.8,93.9 	"/>
	<polygon class="st0" points="187.4,100.3 185.3,93.9 185.1,93.9 185.1,93.8 185,93.9 184.8,93.9 182.7,100.3 180.4,93.9 
		179.5,93.9 182.4,102.1 182.6,102.1 182.7,102.3 182.8,102.1 183,102.1 185.1,95.8 187.1,102.1 187.3,102.1 187.4,102.3 
		187.5,102.1 187.7,102.1 190.7,93.9 189.8,93.9 	"/>
	<path class="st0" d="M198.9,101.5c-2.1,0-3.5-1.4-3.5-3.5c0-2.1,1.4-3.5,3.5-3.5c2.1,0,3.5,1.4,3.5,3.5
		C202.3,100.1,201,101.5,198.9,101.5L198.9,101.5z M198.9,93.6c-2.6,0-4.3,1.8-4.3,4.4c0,2.6,1.7,4.3,4.3,4.3c2.6,0,4.3-1.8,4.3-4.4
		C203.2,95.4,201.4,93.6,198.9,93.6z"/>
	<path class="st0" d="M212,101.5c-2.1,0-3.5-1.4-3.5-3.5c0-2.1,1.4-3.5,3.5-3.5c2.1,0,3.5,1.4,3.5,3.5
		C215.5,100.1,214.1,101.5,212,101.5L212,101.5z M212,93.6c-2.6,0-4.3,1.8-4.3,4.4c0,2.6,1.7,4.3,4.3,4.3c2.6,0,4.3-1.8,4.3-4.4
		C216.3,95.4,214.6,93.6,212,93.6z"/>
	<path class="st0" d="M225.5,101.2h-3.2v-6.5h3.2c1.9,0,3.2,1.2,3.2,3C228.7,99.8,227.4,101.2,225.5,101.2L225.5,101.2z M225.5,93.9
		h-4.1v8.2h4c2.4,0,4.1-1.8,4.1-4.3C229.6,95.5,227.9,93.9,225.5,93.9z"/>
	<path class="st0" d="M98.9,73.1c2.1-2,16.1-14.7,17.6-26.7c0.6-5.2,1.6-27.9-38.8-19.4c-27.5,5.8-51.8,28.7-55,40.5
		c-0.4,1.4-0.6,3-0.6,4.7c0,2.8,0.6,5.8,2.1,8.2c5.4,8.4,11.5,11,12.1,10.3c1-1.2-4.1-5.7-4.9-6.5c-1.8-1.7-3.2-3.6-4.1-5.6
		c-3.4-7.7,2.1-16.1,8.9-23.9C45.6,43.6,72,27,94.6,29c12.6,1.1,18.3,8.3,18,15.6c-0.2,3.6-1.6,6.9-3.5,10.4
		c-4.6,8.3-11.6,14.6-16.8,19c-9.4,8.1-17,11.6-17,11.6c0-0.8,0.2-2.6,0.3-3.3c0.1-1.9,0.3-3.9,0.3-5.8c0-6.3,0-13.1-0.2-19.9l0-0.6
		c-0.1-2-0.1-4.3-1.7-6c-0.4-0.4-1.8-1.3-2.3-0.8c-0.4,0.4-1.5,1.4-1.7,2.5c-0.2,0.7,0.3,1.5,0.6,2.3l0.2,0.3c0.2,0.3,0.4,0.7,0.6,1
		c0.3,0.4,0.5,0.7,0.6,1.1c0.3,0.9,0.3,1.9,0.3,3v0.7c0,5.9,0,11.9-0.1,17.9c0,1.3-0.1,2.7-0.2,4c-0.1,1.2-0.1,2.4-0.2,3.6
		c0,1.2-0.2,1.6-1.1,2.3c-1.9,1.5-3.8,2.5-5.5,4c-0.6,0.6-0.7,1.1-0.6,1.4c0.1,0.5,0.6,0.8,1.3,1c0.9,0.1,2,0.2,2.3,0
		c0.9-0.6,1.6-0.9,2.6-1.7c0.2-0.1,0.4-0.3,0.6-0.4c0,0.3,0,0.6,0,0.8l-0.1,4.1c-0.1,7.6-0.2,8.4-0.4,16.1l0,0.6c0,1,0,2-0.4,2.8
		c-0.3,0.8-0.4,1.4-0.1,1.8c0.2,0.3,0.4,0.6,0.8,0.7c0.2,0.1,0.5,0.1,0.8,0.1h0h0h0c0.7,0,1.5-0.2,1.8-0.7c0.7-0.9,1-2.2,1-3.1
		c0.1-4.3,0-1.8,0-6l0-6.1c0-4.2,0-12.5,0-12.5S86.7,84.4,98.9,73.1z"/>
	<path class="st0" d="M120.2,110c-0.2-0.5-1.1-0.9-1.6-0.8h0c-0.9,0-1.4-0.1-1.6-0.3c-0.2-0.2-0.3-0.7-0.2-1.6
		c0-0.5,0.1-0.9,0.1-1.4c0.1-0.6,0.1-1.2,0.2-1.8c0-0.7-0.1-1.3-0.5-1.6c-0.3-0.3-0.7-0.4-1.1-0.4c-0.7,0.1-1.6,0.4-2.1,1.1
		c-0.6,0.8-1.1,1.6-1.6,2.4c-0.4,0.7-0.9,1.4-1.4,2.1c-0.3,0.5-1,0.9-1.3,0.9c-0.4-0.1-0.9-0.6-1.2-1.2c-0.3-0.7-0.6-1.5-0.8-2.3
		c-0.1-0.4-0.3-0.9-0.5-1.4c-0.2-0.6-0.6-1.1-1.1-1.3c-0.5-0.2-1-0.1-1.5,0.2c-1.1,0.6-2.1,1.5-2.9,2.5c-0.8,0.9-2.8,4-2.8,4
		s-0.1-0.3-0.1-0.6c0-2.3,0.2-4.7,0.2-7l0-0.1c0.2-5.6,0.4-10.5,0.5-16.3c0-1.2-0.3-2.4-0.9-3.5c-0.5-0.8-0.9-1.3-1.3-1.3
		c0,0-0.1,0-0.1,0c-0.9,0.2-1.3,2.4-1.3,2.8c0,0.3,0.1,0.7,0.2,1c0.1,0.3,0.2,0.5,0.2,0.7c0,1.5-0.1,2-0.1,3.4l0,0.2
		c0,1.1-0.1,2.2-0.1,3.4l-0.1,2.3C95,98.9,94.9,104,94.8,109c0,1.2,0.2,2.6,0.7,3.9c0.3,0.7,1.2,1.5,2,1.7c0.7,0.2,1.7-0.8,2-1.2
		c1.1-1.6,2.2-3.1,3.3-4.8c0.3-0.4,0.5-0.7,0.8-1.1l0.1-0.2l0.1,0.2c0.6,1.8,1.5,3.8,3.6,4.7c2,0.8,3.1-0.4,4.2-1.5
		c0.4-0.4,0.7-0.8,1.2-1.1l0.1-0.1l0.3,0.8c0.4,1.3,1.6,2.3,3.1,2.6c1.4,0.3,2.8-0.1,3.6-1C120.2,111.4,120.3,110.5,120.2,110z"/>
	<path class="st0" d="M119.3,93.8c-0.5-0.7-1.2-1.2-1.9-1.2c0,0,0,0,0,0c-0.5,0-0.9,0.2-1.3,0.6c-0.6,0.7-0.3,1.7-0.2,2
		c0.2,0.8,1.3,1.6,1.9,1.6c0.8,0,1.6-0.6,1.9-1.2C119.9,95.1,119.8,94.4,119.3,93.8z"/>
	<path class="st0" d="M138.1,76.4c-0.2,0-0.4,0.2-0.4,0.4v41.7c0,0.2,0.2,0.4,0.4,0.4c0.2,0,0.4-0.2,0.4-0.4V76.8
		C138.5,76.6,138.4,76.4,138.1,76.4z"/>
	<path class="st0" d="M161.9,111.9h-3.1l1.5-3L161.9,111.9L161.9,111.9z M160.5,108.5h-0.3l-3,6.1l0,0.1h0.3l1.2-2.4h3.4l1.2,2.4
		l0,0h0.3L160.5,108.5L160.5,108.5z"/>
	<path class="st0" d="M181,112.6c-0.2,1.5-1.5,2-2.8,2c-1.8,0-3-1.3-3-3c0-1.7,1.2-2.9,3.1-2.9c1.5,0,2.4,0.6,2.7,1.9l0,0.1l0.3-0.1
		l0-0.1c-0.3-1.3-1.3-2.1-2.9-2.1c-2.1,0-3.4,1.2-3.4,3.2c0,1.9,1.4,3.3,3.3,3.3c1.4,0,2.9-0.6,3.1-2.3l0-0.1L181,112.6L181,112.6z"
		/>
	<polygon class="st0" points="190,111.4 184.8,111.4 184.8,108.6 184.5,108.6 184.5,114.7 184.8,114.7 184.8,111.7 190,111.7 
		190,114.7 190.3,114.7 190.3,108.6 190,108.6 	"/>
	<rect x="194" y="108.6" class="st0" width="0.3" height="6.1"/>
	<polygon class="st0" points="196.9,108.9 200,108.9 200,114.7 200.3,114.7 200.3,108.9 203.3,108.9 203.4,108.6 196.9,108.6 	"/>
	<polygon class="st0" points="206.3,111.7 210.7,111.7 210.7,111.4 206.3,111.4 206.3,108.9 211.4,108.9 211.4,108.6 206,108.6 
		206,114.7 211.6,114.7 211.6,114.4 206.3,114.4 	"/>
	<path class="st0" d="M219.9,112.6c-0.2,1.5-1.5,2-2.8,2c-1.8,0-3-1.3-3-3c0-1.7,1.2-2.9,3.1-2.9c1.5,0,2.4,0.6,2.7,1.9l0,0.1
		l0.3-0.1l0-0.1c-0.3-1.3-1.3-2.1-2.9-2.1c-2.1,0-3.4,1.2-3.4,3.2c0,1.9,1.4,3.3,3.3,3.3c1.4,0,2.9-0.6,3.1-2.3l0-0.1L219.9,112.6
		L219.9,112.6z"/>
	<polygon class="st0" points="222.2,108.6 222.2,108.9 225.2,108.9 225.2,114.7 225.5,114.7 225.5,108.9 228.6,108.9 228.6,108.6 	
		"/>
	<path class="st0" d="M166.5,111.9v-3h3.2c1.4,0,2.1,0.5,2.1,1.4c0,0.7-0.7,1.5-1.8,1.5H166.5L166.5,111.9z M172.2,110.3
		c0-1.1-0.8-1.7-2.4-1.7h-3.5v5.9h0.3v-2.3h3l0,0l1.9,2.3h0.4l-2-2.3h0.2C171.4,112.2,172.2,111.2,172.2,110.3z"/>
</g>
</svg>
