<?xml version="1.0" encoding="utf-8"?>
<!-- Generator: Adobe Illustrator 28.0.0, SVG Export Plug-In . SVG Version: 6.00 Build 0)  -->
<svg version="1.1" id="Layer_1" xmlns="http://www.w3.org/2000/svg" xmlns:xlink="http://www.w3.org/1999/xlink" x="0px" y="0px"
	 viewBox="0 0 174.6 88.5" style="enable-background:new 0 0 174.6 88.5;" xml:space="preserve">
<style type="text/css">
	.st0{fill:#B4AEA7;stroke:#B4AEA7;stroke-miterlimit:10;}
</style>
<g>
	<path class="st0" d="M17.4,14.2H7.1V6.3h9.3c5.3,0,5.9,2.1,5.9,3.8C22.3,11.7,20.8,14.2,17.4,14.2L17.4,14.2z M16.4,4.3H5.1v19h2
		v-7.1h10.3c4.3,0,6.9-3.2,6.9-6.2C24.3,7.4,23,4.3,16.4,4.3z"/>
	<polygon class="st0" points="48.2,12.6 34,12.6 34,4.3 32,4.3 32,23.3 34,23.3 34,14.6 48.2,14.6 48.2,23.3 50.2,23.3 50.2,4.3 
		48.2,4.3 	"/>
	<rect x="60.2" y="4.3" class="st0" width="2" height="19"/>
	<polygon class="st0" points="74.1,4.3 72.1,4.3 72.1,23.3 88.4,23.3 88.4,21.3 74.1,21.3 	"/>
	<polygon class="st0" points="96.9,4.3 94.9,4.3 94.9,23.3 111.2,23.3 111.2,21.3 96.9,21.3 	"/>
	<rect x="117.7" y="4.3" class="st0" width="2" height="19"/>
	<path class="st0" d="M141.9,14.2h-10.3V6.3h9.3c5.3,0,5.9,2.1,5.9,3.8C146.9,11.7,145.3,14.2,141.9,14.2L141.9,14.2z M141,4.3
		h-11.3v19h2v-7.1h10.3c4.3,0,6.9-3.2,6.9-6.2C148.9,7.4,147.5,4.3,141,4.3z"/>
	<path class="st0" d="M158.1,14.1l3.6-7.2l3.6,7.2H158.1L158.1,14.1z M172.1,23.3L172.1,23.3L162.5,4H161l-9.7,19.3h2.2l3.6-7.2h9.3
		l3.6,7.2C170,23.3,172.1,23.3,172.1,23.3z"/>
	<path class="st0" d="M8.5,46.2l3.6-7.2l3.6,7.2H8.5L8.5,46.2z M11.4,36.1L1.7,55.4h2.2l3.6-7.2h9.3l3.6,7.2h2.2l-9.7-19.3
		C12.9,36.1,11.4,36.1,11.4,36.1z"/>
	<polygon class="st0" points="27.3,38.3 36.3,38.3 36.3,55.4 38.3,55.4 38.3,38.3 47.2,38.3 47.4,36.4 27.3,36.4 	"/>
	<polygon class="st0" points="73.1,51.3 68.2,36.4 67.6,36.4 67.5,36.1 67.5,36.4 66.9,36.4 62,51.3 56.6,36.4 54.5,36.4 61.3,55.4 
		61.8,55.4 62,55.8 62.2,55.4 62.8,55.4 67.5,40.8 72.3,55.4 72.9,55.4 73.1,55.8 73.2,55.4 73.8,55.4 80.6,36.4 78.5,36.4 	"/>
	<path class="st0" d="M99.8,54c-4.9,0-8.1-3.2-8.1-8.1c0-5,3.2-8.3,8.1-8.3c4.9,0,8.1,3.2,8.1,8.1C107.9,50.8,104.7,54,99.8,54
		L99.8,54z M99.7,35.7c-6,0-10.1,4.1-10.1,10.2c0,6,4.1,10.1,10.1,10.1c6,0,10.1-4.1,10.1-10.2C109.9,39.7,105.8,35.7,99.7,35.7z"/>
	<path class="st0" d="M130.5,54c-4.9,0-8.1-3.2-8.1-8.1c0-5,3.2-8.3,8.1-8.3c4.9,0,8.1,3.2,8.1,8.1C138.6,50.8,135.4,54,130.5,54
		L130.5,54z M130.4,35.7c-6,0-10.1,4.1-10.1,10.2c0,6,4.1,10.1,10.1,10.1c6,0,10.1-4.1,10.1-10.2C140.6,39.7,136.5,35.7,130.4,35.7z
		"/>
	<path class="st0" d="M162,53.4h-7.4V38.3h7.5c4.5,0,7.5,2.8,7.5,7C169.5,50.2,166.5,53.4,162,53.4L162,53.4z M162,36.4h-9.5v19h9.4
		c5.6,0,9.6-4.1,9.6-10C171.5,40.1,167.6,36.4,162,36.4z"/>
	<path class="st0" d="M13.5,78.4H6.3l3.6-7.1L13.5,78.4L13.5,78.4z M10.2,70.4H9.6L2.5,84.6l-0.1,0.2h0.7L6,79.1h7.8l2.8,5.6l0,0.1
		h0.7L10.2,70.4L10.2,70.4z"/>
	<path class="st0" d="M58.2,79.9c-0.4,3.5-3.6,4.7-6.4,4.7c-4.1,0-7.1-2.9-7.1-7c0-4,2.8-6.7,7.2-6.7c3.4,0,5.5,1.5,6.2,4.3l0,0.2
		l0.6-0.3l0-0.1c-0.7-3.1-3.1-4.8-6.9-4.8c-4.8,0-7.9,2.9-7.9,7.4c0,4.4,3.3,7.7,7.8,7.7c3.2,0,6.7-1.4,7.1-5.3l0-0.1l-0.7-0.1
		L58.2,79.9z"/>
	<polygon class="st0" points="79,77.2 66.9,77.2 66.9,70.6 66.2,70.6 66.2,84.8 66.9,84.8 66.9,77.9 79,77.9 79,84.8 79.7,84.8 
		79.7,70.6 79,70.6 	"/>
	<rect x="88.5" y="70.6" class="st0" width="0.7" height="14.2"/>
	<polygon class="st0" points="95.3,71.3 102.4,71.3 102.4,84.8 103.1,84.8 103.1,71.3 110.2,71.3 110.3,70.6 95.3,70.6 	"/>
	<polygon class="st0" points="117.1,77.9 127.3,77.9 127.3,77.2 117.1,77.2 117.1,71.3 129,71.3 129,70.6 116.4,70.6 116.4,84.8 
		129.4,84.8 129.4,84.1 117.1,84.1 	"/>
	<path class="st0" d="M148.8,79.9c-0.4,3.5-3.6,4.7-6.4,4.7c-4.1,0-7.1-2.9-7.1-7c0-4,2.8-6.7,7.2-6.7c3.4,0,5.5,1.5,6.2,4.3l0,0.2
		l0.6-0.3l0-0.1c-0.7-3.1-3.1-4.8-6.9-4.8c-4.8,0-7.9,2.9-7.9,7.4c0,4.4,3.3,7.7,7.8,7.7c3.2,0,6.7-1.4,7.1-5.3l0-0.1l-0.7-0.1
		L148.8,79.9z"/>
	<polygon class="st0" points="154.1,70.6 154.1,71.3 161.3,71.3 161.3,84.8 162,84.8 162,71.3 169.1,71.3 169.1,70.6 	"/>
	<path class="st0" d="M24.3,78.2v-6.9h7.5c3.3,0,4.9,1.1,4.9,3.3c0,1.7-1.6,3.6-4.2,3.6H24.3L24.3,78.2z M37.5,74.6
		c0-2.7-1.9-4-5.6-4h-8.3v13.8h0.7V79h7l0,0.1l4.5,5.4h1L32.2,79h0.4C35.6,78.9,37.5,76.7,37.5,74.6z"/>
</g>
</svg>
