<?xml version="1.0" encoding="UTF-8"?> <!-- Generator: Adobe Illustrator 16.0.0, SVG Export Plug-In . SVG Version: 6.00 Build 0) --> <svg xmlns="http://www.w3.org/2000/svg" xmlns:xlink="http://www.w3.org/1999/xlink" version="1.1" id="Layer_1" x="0px" y="0px" width="252px" height="144px" viewBox="0 0 252 144" xml:space="preserve"> <g> <path fill="#FFFFFF" stroke="#FFFFFF" stroke-miterlimit="10" d="M163.572,84.439h-4.409v-3.405h3.989 c2.27,0,2.529,0.921,2.529,1.612C165.684,83.371,165.012,84.439,163.572,84.439L163.572,84.439z M163.152,80.184h-4.842v8.155 h0.853v-3.047h4.409c1.828,0,2.962-1.373,2.962-2.646C166.534,81.523,165.947,80.184,163.152,80.184z"></path> <polygon fill="#FFFFFF" stroke="#FFFFFF" stroke-miterlimit="10" points="176.777,83.729 170.688,83.729 170.688,80.184 169.838,80.184 169.838,88.339 170.688,88.339 170.688,84.579 176.777,84.579 176.777,88.339 177.631,88.339 177.631,80.184 176.777,80.184 "></polygon> <rect x="181.896" y="80.184" fill="#FFFFFF" stroke="#FFFFFF" stroke-miterlimit="10" width="0.853" height="8.155"></rect> <polygon fill="#FFFFFF" stroke="#FFFFFF" stroke-miterlimit="10" points="187.863,80.184 187.014,80.184 187.014,88.339 193.969,88.339 193.969,87.486 187.863,87.486 "></polygon> <polygon fill="#FFFFFF" stroke="#FFFFFF" stroke-miterlimit="10" points="197.637,80.184 196.783,80.184 196.783,88.339 203.738,88.339 203.738,87.486 197.637,87.486 "></polygon> <rect x="206.555" y="80.184" fill="#FFFFFF" stroke="#FFFFFF" stroke-miterlimit="10" width="0.854" height="8.155"></rect> <path fill="#FFFFFF" stroke="#FFFFFF" stroke-miterlimit="10" d="M216.934,84.439h-4.408v-3.405h3.99 c2.269,0,2.529,0.921,2.529,1.612C219.045,83.371,218.374,84.439,216.934,84.439L216.934,84.439z M216.516,80.184h-4.842v8.155 h0.852v-3.047h4.408c1.83,0,2.963-1.373,2.963-2.646C219.896,81.523,219.311,80.184,216.516,80.184z"></path> <path fill="#FFFFFF" stroke="#FFFFFF" stroke-miterlimit="10" d="M223.85,84.385l1.561-3.094l1.561,3.094H223.85L223.85,84.385z M229.872,88.339v-0.003l-4.151-8.268h-0.623l-4.152,8.271h0.927l1.552-3.104h3.973l1.552,3.104H229.872z"></path> <path fill="#FFFFFF" stroke="#FFFFFF" stroke-miterlimit="10" d="M159.754,98.118l1.559-3.095l1.562,3.095H159.754L159.754,98.118z M161.002,93.803l-4.152,8.271h0.926l1.552-3.104h3.976l1.549,3.104h0.926l-4.15-8.271H161.002z"></path> <polygon fill="#FFFFFF" stroke="#FFFFFF" stroke-miterlimit="10" points="167.811,94.77 171.684,94.77 171.684,102.072 172.535,102.072 172.535,94.77 176.354,94.77 176.439,93.918 167.811,93.918 "></polygon> <polygon fill="#FFFFFF" stroke="#FFFFFF" stroke-miterlimit="10" points="187.439,100.34 185.322,93.918 185.096,93.918 185.05,93.807 185.014,93.918 184.777,93.918 182.67,100.337 180.354,93.918 179.454,93.918 182.385,102.072 182.604,102.072 182.697,102.254 182.758,102.072 183.001,102.072 185.052,95.809 187.111,102.072 187.338,102.072 187.415,102.252 187.479,102.072 187.727,102.072 190.657,93.918 189.758,93.918 "></polygon> <path fill="#FFFFFF" stroke="#FFFFFF" stroke-miterlimit="10" d="M198.887,101.482c-2.089,0-3.492-1.391-3.492-3.459 c0-2.149,1.357-3.539,3.457-3.539c2.09,0,3.492,1.391,3.492,3.459C202.344,100.094,200.986,101.482,198.887,101.482 L198.887,101.482z M198.852,93.634c-2.578,0-4.309,1.765-4.309,4.39c0,2.578,1.746,4.311,4.344,4.311 c2.577,0,4.309-1.766,4.309-4.389C203.195,95.366,201.45,93.634,198.852,93.634z"></path> <path fill="#FFFFFF" stroke="#FFFFFF" stroke-miterlimit="10" d="M212.032,101.482c-2.091,0-3.492-1.391-3.492-3.459 c0-2.149,1.356-3.539,3.458-3.539c2.089,0,3.492,1.391,3.492,3.459C215.49,100.094,214.134,101.482,212.032,101.482 L212.032,101.482z M211.998,93.634c-2.577,0-4.311,1.765-4.311,4.39c0,2.578,1.746,4.311,4.345,4.311 c2.575,0,4.31-1.766,4.31-4.389C216.342,95.366,214.596,93.634,211.998,93.634z"></path> <path fill="#FFFFFF" stroke="#FFFFFF" stroke-miterlimit="10" d="M225.506,101.221h-3.188V94.77h3.197 c1.936,0,3.231,1.207,3.231,3.006C228.749,99.836,227.445,101.221,225.506,101.221L225.506,101.221z M225.518,93.918h-4.05v8.154 h4.038c2.41,0,4.094-1.768,4.094-4.299C229.6,95.503,227.921,93.918,225.518,93.918z"></path> <path fill="#FFFFFF" stroke="#FFFFFF" stroke-miterlimit="10" d="M98.87,73.064c2.104-1.961,16.122-14.707,17.585-26.735 c0.632-5.2,1.633-27.874-38.79-19.39C50.162,32.711,25.868,55.594,22.71,67.458c-0.363,1.365-0.579,2.99-0.582,4.685 c-0.005,2.824,0.58,5.839,2.055,8.153c5.353,8.397,11.544,10.979,12.088,10.291c0.952-1.203-4.129-5.721-4.932-6.503 c-1.771-1.725-3.248-3.581-4.128-5.598c-3.356-7.684,2.108-16.107,8.85-23.888c9.556-11.029,35.988-27.57,58.522-25.594 c12.575,1.102,18.294,8.336,17.958,15.557c-0.165,3.552-1.568,6.862-3.498,10.36c-4.584,8.306-11.646,14.575-16.791,19.039 C82.9,82.075,75.206,85.536,75.206,85.536c0.046-0.781,0.21-2.565,0.265-3.347c0.134-1.904,0.272-3.877,0.277-5.821 c0.017-6.345,0.014-13.109-0.219-19.921l-0.018-0.637c-0.051-2.004-0.11-4.277-1.661-6.05c-0.363-0.415-1.769-1.314-2.311-0.85 c-0.438,0.37-1.481,1.357-1.718,2.525c-0.151,0.739,0.264,1.548,0.631,2.262l0.17,0.336c0.17,0.345,0.399,0.654,0.621,0.952 c0.278,0.374,0.541,0.728,0.643,1.098c0.252,0.906,0.253,1.93,0.254,2.996v0.732c0.005,5.875,0.011,11.949-0.054,17.923 c-0.015,1.336-0.098,2.697-0.177,4.016c-0.072,1.193-0.146,2.43-0.171,3.648c-0.024,1.162-0.236,1.57-1.117,2.281 c-1.894,1.523-3.831,2.512-5.483,4.024c-0.636,0.582-0.655,1.088-0.561,1.407c0.145,0.486,0.648,0.844,1.345,0.957 c0.88,0.143,2.008,0.176,2.285-0.01c0.919-0.613,1.64-0.936,2.571-1.651c0.192-0.147,0.387-0.298,0.584-0.449 c0.015,0.302,0.025,0.56,0.021,0.815L71.31,96.88c-0.138,7.628-0.228,8.447-0.387,16.076l-0.008,0.562 c-0.008,0.979-0.018,1.989-0.352,2.799c-0.308,0.75-0.356,1.363-0.144,1.822c0.15,0.323,0.43,0.562,0.808,0.685 c0.229,0.073,0.528,0.116,0.85,0.118h0.016h0.016h0.033c0.698-0.006,1.481-0.199,1.847-0.658c0.719-0.904,0.992-2.213,1.007-3.139 c0.071-4.254,0.022-1.771,0.02-5.955l0.003-6.064c0.004-4.173-0.015-12.52-0.015-12.52S86.675,84.432,98.87,73.064z"></path> <path fill="#FFFFFF" stroke="#FFFFFF" stroke-miterlimit="10" d="M120.163,109.956c-0.156-0.494-1.056-0.853-1.561-0.806h-0.003 c-0.917,0.031-1.405-0.059-1.637-0.303c-0.231-0.246-0.303-0.729-0.24-1.611c0.034-0.459,0.086-0.924,0.137-1.373 c0.067-0.6,0.136-1.219,0.164-1.828c0.03-0.682-0.149-1.251-0.505-1.604c-0.298-0.295-0.694-0.422-1.139-0.375 c-0.684,0.06-1.644,0.42-2.142,1.07c-0.593,0.775-1.118,1.616-1.625,2.432c-0.415,0.664-0.875,1.401-1.36,2.072 c-0.334,0.465-1.012,0.928-1.261,0.862c-0.399-0.085-0.945-0.64-1.212-1.233c-0.333-0.74-0.578-1.549-0.816-2.328 c-0.134-0.44-0.286-0.94-0.454-1.418c-0.227-0.644-0.632-1.103-1.14-1.293c-0.461-0.175-0.978-0.113-1.457,0.17 c-1.075,0.637-2.069,1.486-2.873,2.463c-0.775,0.941-2.814,4.031-2.814,4.031s-0.074-0.258-0.068-0.562 c0.043-2.329,0.156-4.655,0.236-6.982l0.004-0.106c0.193-5.647,0.354-10.508,0.489-16.256c0.029-1.229-0.289-2.42-0.944-3.541 c-0.489-0.836-0.94-1.259-1.344-1.259c-0.049,0-0.098,0.007-0.145,0.02c-0.877,0.228-1.329,2.446-1.344,2.8 c-0.016,0.346,0.099,0.682,0.2,0.979c0.09,0.262,0.173,0.506,0.169,0.726c-0.029,1.457-0.05,1.954-0.11,3.385l-0.006,0.157 c-0.046,1.105-0.092,2.247-0.123,3.372l-0.065,2.321c-0.139,4.94-0.284,10.052-0.338,15.088c-0.014,1.238,0.25,2.619,0.747,3.886 c0.288,0.741,1.185,1.504,2,1.698c0.725,0.182,1.692-0.771,1.992-1.184c1.135-1.555,2.192-3.122,3.311-4.781 c0.254-0.377,0.501-0.744,0.75-1.109l0.115-0.17l0.062,0.195c0.578,1.815,1.452,3.793,3.554,4.687 c1.979,0.843,3.147-0.409,4.176-1.515c0.371-0.398,0.745-0.801,1.154-1.123l0.109-0.086l0.261,0.764 c0.435,1.273,1.63,2.261,3.119,2.577c1.429,0.301,2.78-0.075,3.624-1.015C120.229,111.376,120.332,110.488,120.163,109.956z"></path> <path fill="#FFFFFF" stroke="#FFFFFF" stroke-miterlimit="10" d="M119.326,93.771c-0.479-0.709-1.209-1.162-1.867-1.162 c-0.008,0-0.017,0-0.025,0c-0.462,0.009-0.933,0.189-1.319,0.646c-0.602,0.708-0.313,1.659-0.245,1.976 c0.178,0.826,1.28,1.629,1.915,1.629c0.757,0,1.613-0.575,1.875-1.197C119.886,95.122,119.761,94.415,119.326,93.771z"></path> <path fill="#FFFFFF" stroke="#FFFFFF" stroke-miterlimit="10" d="M138.133,76.398c-0.221,0-0.398,0.179-0.398,0.398v41.671 c0,0.222,0.179,0.399,0.398,0.399c0.221,0,0.398-0.18,0.398-0.399v-41.67C138.531,76.577,138.354,76.398,138.133,76.398z"></path> <path fill="#FFFFFF" stroke="#FFFFFF" stroke-miterlimit="10" d="M161.882,111.917h-3.06l1.527-3.033L161.882,111.917 L161.882,111.917z M160.482,108.514h-0.265l-3.047,6.064l-0.046,0.092h0.318l1.226-2.447h3.362l1.207,2.413l0.02,0.034h0.317 l-3.075-6.123L160.482,108.514z"></path> <path fill="#FFFFFF" stroke="#FFFFFF" stroke-miterlimit="10" d="M181.049,112.555c-0.165,1.48-1.531,2.008-2.754,2.008 c-1.75,0-3.021-1.254-3.021-2.984c0-1.732,1.209-2.852,3.074-2.852c1.461,0,2.357,0.625,2.666,1.855l0.02,0.073l0.273-0.123 l-0.011-0.05c-0.28-1.328-1.327-2.061-2.948-2.061c-2.051,0-3.377,1.238-3.377,3.154c0,1.904,1.397,3.289,3.324,3.289 c1.357,0,2.875-0.6,3.057-2.28l0.006-0.063l-0.303-0.029L181.049,112.555z"></path> <polygon fill="#FFFFFF" stroke="#FFFFFF" stroke-miterlimit="10" points="189.964,111.398 184.789,111.398 184.789,108.602 184.484,108.602 184.484,114.67 184.789,114.67 184.789,111.702 189.964,111.702 189.964,114.67 190.268,114.67 190.268,108.602 189.964,108.602 "></polygon> <rect x="194.036" y="108.602" fill="#FFFFFF" stroke="#FFFFFF" stroke-miterlimit="10" width="0.303" height="6.068"></rect> <polygon fill="#FFFFFF" stroke="#FFFFFF" stroke-miterlimit="10" points="196.948,108.905 200.005,108.905 200.005,114.67 200.309,114.67 200.309,108.905 203.341,108.905 203.372,108.602 196.948,108.602 "></polygon> <polygon fill="#FFFFFF" stroke="#FFFFFF" stroke-miterlimit="10" points="206.266,111.72 210.654,111.72 210.654,111.417 206.266,111.417 206.266,108.905 211.396,108.905 211.396,108.602 205.971,108.602 205.971,114.67 211.564,114.67 211.564,114.366 206.266,114.366 "></polygon> <path fill="#FFFFFF" stroke="#FFFFFF" stroke-miterlimit="10" d="M219.883,112.555c-0.164,1.48-1.529,2.008-2.753,2.008 c-1.75,0-3.021-1.254-3.021-2.984c0-1.732,1.207-2.852,3.074-2.852c1.461,0,2.356,0.625,2.664,1.855l0.021,0.073l0.272-0.123 l-0.01-0.05c-0.279-1.328-1.326-2.061-2.947-2.061c-2.052,0-3.379,1.238-3.379,3.154c0,1.904,1.397,3.289,3.325,3.289 c1.356,0,2.875-0.6,3.056-2.28l0.006-0.063l-0.301-0.029L219.883,112.555z"></path> <polygon fill="#FFFFFF" stroke="#FFFFFF" stroke-miterlimit="10" points="222.157,108.602 222.157,108.905 225.215,108.905 225.215,114.67 225.518,114.67 225.518,108.905 228.551,108.905 228.582,108.602 "></polygon> <path fill="#FFFFFF" stroke="#FFFFFF" stroke-miterlimit="10" d="M166.52,111.865v-2.957h3.232c1.42,0,2.109,0.461,2.109,1.408 c0,0.744-0.685,1.549-1.788,1.549H166.52L166.52,111.865z M172.171,110.316c0-1.139-0.815-1.715-2.419-1.715h-3.54v5.905h0.308 v-2.336h2.994l0.021,0.022l1.94,2.308h0.412l-1.959-2.33h0.168C171.377,112.16,172.171,111.199,172.171,110.316z"></path> </g> </svg> 